<?xml version="1.0" encoding="UTF-8" standalone="no"?>
<!-- Created with Inkscape (http://www.inkscape.org/) -->

<svg
   width="210mm"
   height="297mm"
   viewBox="0 0 210 297"
   version="1.1"
   id="svg5"
   inkscape:version="1.1 (c68e22c387, 2021-05-23)"
   sodipodi:docname="teleportatio.svg"
   inkscape:export-filename="C:\Users\tanma\Desktop\teleportatiypoo.png"
   inkscape:export-xdpi="316.79999"
   inkscape:export-ydpi="316.79999"
   xmlns:inkscape="http://www.inkscape.org/namespaces/inkscape"
   xmlns:sodipodi="http://sodipodi.sourceforge.net/DTD/sodipodi-0.dtd"
   xmlns="http://www.w3.org/2000/svg"
   xmlns:svg="http://www.w3.org/2000/svg">
  <sodipodi:namedview
     id="namedview7"
     pagecolor="#505050"
     bordercolor="#eeeeee"
     borderopacity="1"
     inkscape:pageshadow="0"
     inkscape:pageopacity="0"
     inkscape:pagecheckerboard="0"
     inkscape:document-units="mm"
     showgrid="false"
     inkscape:zoom="1.4142136"
     inkscape:cx="187.73685"
     inkscape:cy="368.75618"
     inkscape:window-width="1920"
     inkscape:window-height="1051"
     inkscape:window-x="-9"
     inkscape:window-y="-9"
     inkscape:window-maximized="1"
     inkscape:current-layer="layer1" />
  <defs
     id="defs2">
    <filter
       inkscape:collect="always"
       style="color-interpolation-filters:sRGB"
       id="filter831"
       x="-0.033671742"
       y="-0.099359123"
       width="1.0617607"
       height="1.1920589">
      <feGaussianBlur
         inkscape:collect="always"
         stdDeviation="0.79294906"
         id="feGaussianBlur833" />
    </filter>
    <filter
       inkscape:collect="always"
       style="color-interpolation-filters:sRGB"
       id="filter835"
       x="-0.055911343"
       y="-0.10862951"
       width="1.1261857"
       height="1.2364403">
      <feGaussianBlur
         inkscape:collect="always"
         stdDeviation="0.79294906"
         id="feGaussianBlur837" />
    </filter>
    <filter
       inkscape:collect="always"
       style="color-interpolation-filters:sRGB"
       id="filter839"
       x="-0.083628973"
       y="-0.14055341"
       width="1.167297"
       height="1.2806851">
      <feGaussianBlur
         inkscape:collect="always"
         stdDeviation="0.79294906"
         id="feGaussianBlur841" />
    </filter>
  </defs>
  <g
     inkscape:label="Layer 1"
     inkscape:groupmode="layer"
     id="layer1">
    <path
       id="rect846"
       style="fill:none;stroke:#000000;stroke-width:0.69915;stroke-miterlimit:4;stroke-dasharray:none"
       d="m 99.981226,59.189504 c -0.50791,0 -0.91694,0.47031 -0.91694,1.05459 v 1.76622 c 0,0.58428 0.40903,1.05459 0.91694,1.05459 h 1.706884 v 21.398628 h -0.51253 c -0.50792,0 -0.91677,0.47031 -0.91677,1.05459 v 0.77229 h -0.790454 c -0.50791,0 -0.91678,0.47032 -0.91678,1.05458 v 6.11188 c 0,0.58426 0.40887,1.05458 0.91678,1.05458 h 25.800264 c 0.50791,0 0.91694,-0.47032 0.91694,-1.05458 v -6.11188 c 0,-0.58426 -0.40903,-1.05458 -0.91694,-1.05458 h -1.0286 v -0.77229 c 0,-0.58428 -0.40886,-1.05459 -0.91678,-1.05459 h -0.55228 V 63.064904 h 1.76701 c 0.50791,0 0.91677,-0.47031 0.91677,-1.05459 v -1.76622 c 0,-0.58428 -0.40886,-1.05459 -0.91677,-1.05459 z"
       inkscape:export-filename="C:\Users\tanma\Desktop\logo  teleportatio.png"
       inkscape:export-xdpi="316.79999"
       inkscape:export-ydpi="316.79999" />
    <path
       style="fill:none;stroke:#000000;stroke-width:0.69915;stroke-linecap:butt;stroke-linejoin:miter;stroke-miterlimit:4;stroke-dasharray:none;stroke-opacity:1"
       d="m 101.68811,84.463532 h 21.08285"
       id="path1058"
       inkscape:export-filename="C:\Users\tanma\Desktop\logo  teleportatio.png"
       inkscape:export-xdpi="316.79999"
       inkscape:export-ydpi="316.79999" />
    <path
       style="fill:none;stroke:#000000;stroke-width:2;stroke-linecap:butt;stroke-linejoin:miter;stroke-miterlimit:4;stroke-dasharray:none;stroke-opacity:1"
       d="M 12.940272,96.988312 H 171.69027"
       id="path2288"
       inkscape:export-filename="C:\Users\tanma\Desktop\logo  teleportatio.png"
       inkscape:export-xdpi="316.79999"
       inkscape:export-ydpi="316.79999" />
    <text
       xml:space="preserve"
       style="font-size:17.6506px;line-height:1.25;font-family:'HoloLens MDL2 Assets';-inkscape-font-specification:'HoloLens MDL2 Assets';letter-spacing:0px;word-spacing:0px;stroke-width:0.441266"
       x="14.09357"
       y="93.700226"
       id="text5474"
       inkscape:export-filename="C:\Users\tanma\Desktop\logo  teleportatio.png"
       inkscape:export-xdpi="316.79999"
       inkscape:export-ydpi="316.79999"><tspan
         sodipodi:role="line"
         id="tspan5472"
         style="font-style:normal;font-variant:normal;font-weight:normal;font-stretch:normal;font-family:'Product Sans';-inkscape-font-specification:'Product Sans';stroke-width:0.441266"
         x="14.09357"
         y="93.700226">TelePortat        o.</tspan></text>
    <path
       style="fill:none;stroke:#000000;stroke-width:1.45144;stroke-linecap:butt;stroke-linejoin:miter;stroke-miterlimit:4;stroke-dasharray:none;stroke-opacity:1"
       d="M 19.819438,100.69248 H 103.42776"
       id="path12978"
       inkscape:export-filename="C:\Users\tanma\Desktop\logo  teleportatio.png"
       inkscape:export-xdpi="316.79999"
       inkscape:export-ydpi="316.79999" />
    <path
       style="fill:none;stroke:#000000;stroke-width:1.10755;stroke-linecap:butt;stroke-linejoin:miter;stroke-miterlimit:4;stroke-dasharray:none;stroke-opacity:1"
       d="M 36.752772,104.13207 H 85.436093"
       id="path12980"
       inkscape:export-filename="C:\Users\tanma\Desktop\logo  teleportatio.png"
       inkscape:export-xdpi="316.79999"
       inkscape:export-ydpi="316.79999" />
    <path
       style="fill:none;stroke:#000000;stroke-width:1.065;stroke-linecap:butt;stroke-linejoin:miter;stroke-opacity:1;stroke-miterlimit:4;stroke-dasharray:none;filter:url(#filter831)"
       d="m 33.67596,96.911926 c 0,0 23.947347,-24.882792 67.91318,-24.508613"
       id="path894" />
    <path
       style="fill:none;stroke:#000000;stroke-width:1.065;stroke-linecap:butt;stroke-linejoin:miter;stroke-opacity:1;stroke-miterlimit:4;stroke-dasharray:none;filter:url(#filter835)"
       d="m 62.908563,79.185277 c 0,0 3.554685,-0.233863 4.723987,0 1.169305,0.23386 -0.654809,1.403165 -1.449935,3.086962 -0.795129,1.683798 3.367595,-0.327406 5.659432,1.028989 2.291834,1.356391 2.57247,9.167344 5.893292,8.185128 3.320825,-0.982215 6.641648,0.42095 9.073801,-1.028988 2.432153,-1.449938 0.374176,-3.601458 5.332026,-2.338607 4.95785,1.262848 3.274052,-2.899876 3.835318,-4.864306 0.561266,-1.964431 1.496708,-1.683798 1.590254,-3.928862 C 97.660281,77.08053 96.257117,72.5904 96.257117,72.5904"
       id="path896" />
    <path
       style="fill:none;stroke:#000000;stroke-width:1.065;stroke-linecap:butt;stroke-linejoin:miter;stroke-opacity:1;stroke-miterlimit:4;stroke-dasharray:none;filter:url(#filter839)"
       d="m 55.653585,94.731479 c 0,0 -3.275703,0.359423 -4.723519,-0.114827 -1.447816,-0.474249 -2.382827,-0.572008 -2.049735,-1.833369 0.333092,-1.261359 1.359117,-0.601919 0.475512,-1.728443 -0.883603,-1.126525 -2.010971,-0.05584 -3.277177,0.686824 -1.266209,0.742656 -2.140752,-2.395051 1.419587,-3.641871 3.560337,-1.24682 5.199875,-1.800704 6.186927,-2.872028 0.987052,-1.071325 -0.644266,-2.341536 3.80052,-2.648919 4.444786,-0.307382 5.426779,-0.256185 4.111482,1.00075 -1.315297,1.256935 -2.95947,2.839799 0.268198,2.760795 3.227667,-0.079 6.31776,-0.76667 6.073788,1.477317 -0.243975,2.243986 -1.650074,2.892469 0.968086,3.13813 2.618161,0.245657 5.002464,0.490265 5.185336,1.426541 0.182872,0.936275 -2.30256,2.375029 -4.272661,3.629014 -1.9701,1.253985 -9.658993,5.288567 -12.222162,3.219019 -2.563172,-2.069545 -1.944182,-4.498933 -1.944182,-4.498933 z"
       id="path898" />
  </g>
</svg>
